<svg xmlns="http://www.w3.org/2000/svg" width="1100" height="520" font-family="Helvetica,Arial" font-size="12"><rect width="1100" height="520" fill="white"/>
<text x="60" y="22" font-size="15" font-weight="bold">Loop-token share per training step: HSG vLLM-parity arms vs CMH comparators (joint % = repetitive-block tokens / all generated tokens)</text>
<line x1="60" y1="470.0" x2="770" y2="470.0" stroke="#ddd"/><text x="52" y="474.0" text-anchor="end">0%</text>
<line x1="60" y1="398.33333333333337" x2="770" y2="398.33333333333337" stroke="#ddd"/><text x="52" y="402.33333333333337" text-anchor="end">5%</text>
<line x1="60" y1="326.6666666666667" x2="770" y2="326.6666666666667" stroke="#ddd"/><text x="52" y="330.6666666666667" text-anchor="end">10%</text>
<line x1="60" y1="255.0" x2="770" y2="255.0" stroke="#ddd"/><text x="52" y="259.0" text-anchor="end">15%</text>
<line x1="60" y1="183.33333333333334" x2="770" y2="183.33333333333334" stroke="#ddd"/><text x="52" y="187.33333333333334" text-anchor="end">20%</text>
<line x1="60" y1="111.66666666666666" x2="770" y2="111.66666666666666" stroke="#ddd"/><text x="52" y="115.66666666666666" text-anchor="end">25%</text>
<line x1="60" y1="40.0" x2="770" y2="40.0" stroke="#ddd"/><text x="52" y="44.0" text-anchor="end">30%</text>
<text x="60.0" y="488" text-anchor="middle">1</text>
<text x="151.02564102564102" y="488" text-anchor="middle">6</text>
<text x="242.05128205128204" y="488" text-anchor="middle">11</text>
<text x="333.0769230769231" y="488" text-anchor="middle">16</text>
<text x="424.1025641025641" y="488" text-anchor="middle">21</text>
<text x="515.1282051282051" y="488" text-anchor="middle">26</text>
<text x="606.1538461538462" y="488" text-anchor="middle">31</text>
<text x="697.1794871794872" y="488" text-anchor="middle">36</text>
<text x="415.0" y="508" text-anchor="middle">training step</text>
<rect x="405.8974358974359" y="40" width="182.051282051282" height="430" fill="#f4f4f4"/><text x="496.9230769230769" y="54" text-anchor="middle" fill="#666">verdict window 20-30</text>
<polyline fill="none" stroke="#d62728" stroke-width="3" points="60.0,437.2 78.2,461.2 96.4,456.1 114.6,445.5 132.8,470.0 151.0,470.0 169.2,400.1 187.4,289.1"/>
<circle cx="60.0" cy="437.2" r="4" fill="#d62728" stroke="#d62728" stroke-width="2"/>
<circle cx="78.2" cy="461.2" r="4" fill="#d62728" stroke="#d62728" stroke-width="2"/>
<circle cx="96.4" cy="456.1" r="4" fill="#d62728" stroke="#d62728" stroke-width="2"/>
<circle cx="114.6" cy="445.5" r="4" fill="#d62728" stroke="#d62728" stroke-width="2"/>
<circle cx="132.8" cy="470.0" r="4" fill="white" stroke="#d62728" stroke-width="2"/>
<circle cx="151.0" cy="470.0" r="4" fill="white" stroke="#d62728" stroke-width="2"/>
<circle cx="169.2" cy="400.1" r="4" fill="white" stroke="#d62728" stroke-width="2"/>
<circle cx="187.4" cy="289.1" r="4" fill="white" stroke="#d62728" stroke-width="2"/>
<line x1="785" y1="50" x2="815" y2="50" stroke="#d62728" stroke-width="3"/><text x="822" y="54">V-HSG (MINF, vLLM-parity, HSG, seed 42)</text>
<polyline fill="none" stroke="#ff7f0e" stroke-width="3" points="60.0,470.0 78.2,470.0"/>
<circle cx="60.0" cy="470.0" r="4" fill="white" stroke="#ff7f0e" stroke-width="2"/>
<circle cx="78.2" cy="470.0" r="4" fill="white" stroke="#ff7f0e" stroke-width="2"/>
<line x1="785" y1="68" x2="815" y2="68" stroke="#ff7f0e" stroke-width="3"/><text x="822" y="72">V-HSG2 (seed 1234)</text>
<polyline fill="none" stroke="#9467bd" stroke-width="3" points="60.0,458.1 78.2,450.5 96.4,470.0 114.6,470.0 132.8,468.6 151.0,468.5 169.2,405.8 187.4,304.9 205.6,461.8"/>
<circle cx="60.0" cy="458.1" r="4" fill="white" stroke="#9467bd" stroke-width="2"/>
<circle cx="78.2" cy="450.5" r="4" fill="white" stroke="#9467bd" stroke-width="2"/>
<circle cx="96.4" cy="470.0" r="4" fill="white" stroke="#9467bd" stroke-width="2"/>
<circle cx="114.6" cy="470.0" r="4" fill="white" stroke="#9467bd" stroke-width="2"/>
<circle cx="132.8" cy="468.6" r="4" fill="white" stroke="#9467bd" stroke-width="2"/>
<circle cx="151.0" cy="468.5" r="4" fill="white" stroke="#9467bd" stroke-width="2"/>
<circle cx="169.2" cy="405.8" r="4" fill="#9467bd" stroke="#9467bd" stroke-width="2"/>
<circle cx="187.4" cy="304.9" r="4" fill="#9467bd" stroke="#9467bd" stroke-width="2"/>
<circle cx="205.6" cy="461.8" r="4" fill="#9467bd" stroke="#9467bd" stroke-width="2"/>
<line x1="785" y1="86" x2="815" y2="86" stroke="#9467bd" stroke-width="3"/><text x="822" y="90">V-HSG3 (seed 4321)</text>
<polyline fill="none" stroke="#bcbd22" stroke-width="3" points="60.0,449.5 78.2,470.0 96.4,416.5 114.6,470.0 132.8,462.2 151.0,470.0 169.2,470.0 187.4,319.5 205.6,470.0"/>
<circle cx="60.0" cy="449.5" r="4" fill="white" stroke="#bcbd22" stroke-width="2"/>
<circle cx="78.2" cy="470.0" r="4" fill="#bcbd22" stroke="#bcbd22" stroke-width="2"/>
<circle cx="96.4" cy="416.5" r="4" fill="white" stroke="#bcbd22" stroke-width="2"/>
<circle cx="114.6" cy="470.0" r="4" fill="white" stroke="#bcbd22" stroke-width="2"/>
<circle cx="132.8" cy="462.2" r="4" fill="white" stroke="#bcbd22" stroke-width="2"/>
<circle cx="151.0" cy="470.0" r="4" fill="white" stroke="#bcbd22" stroke-width="2"/>
<circle cx="169.2" cy="470.0" r="4" fill="white" stroke="#bcbd22" stroke-width="2"/>
<circle cx="187.4" cy="319.5" r="4" fill="white" stroke="#bcbd22" stroke-width="2"/>
<circle cx="205.6" cy="470.0" r="4" fill="white" stroke="#bcbd22" stroke-width="2"/>
<line x1="785" y1="104" x2="815" y2="104" stroke="#bcbd22" stroke-width="3"/><text x="822" y="108">V-HSG-noprefix (MINF prefix cache off, seed 42)</text>
<polyline fill="none" stroke="#7f7f7f" stroke-width="3" points="60.0,470.0 78.2,470.0 96.4,434.0 114.6,470.0 132.8,470.0 151.0,456.8 169.2,447.2 187.4,426.9 205.6,470.0 223.8,470.0"/>
<circle cx="60.0" cy="470.0" r="4" fill="white" stroke="#7f7f7f" stroke-width="2"/>
<circle cx="78.2" cy="470.0" r="4" fill="white" stroke="#7f7f7f" stroke-width="2"/>
<circle cx="96.4" cy="434.0" r="4" fill="white" stroke="#7f7f7f" stroke-width="2"/>
<circle cx="114.6" cy="470.0" r="4" fill="white" stroke="#7f7f7f" stroke-width="2"/>
<circle cx="132.8" cy="470.0" r="4" fill="white" stroke="#7f7f7f" stroke-width="2"/>
<circle cx="151.0" cy="456.8" r="4" fill="white" stroke="#7f7f7f" stroke-width="2"/>
<circle cx="169.2" cy="447.2" r="4" fill="white" stroke="#7f7f7f" stroke-width="2"/>
<circle cx="187.4" cy="426.9" r="4" fill="white" stroke="#7f7f7f" stroke-width="2"/>
<circle cx="205.6" cy="470.0" r="4" fill="white" stroke="#7f7f7f" stroke-width="2"/>
<circle cx="223.8" cy="470.0" r="4" fill="white" stroke="#7f7f7f" stroke-width="2"/>
<line x1="785" y1="122" x2="815" y2="122" stroke="#7f7f7f" stroke-width="3"/><text x="822" y="126">V-HSG2-noprefix (seed 1234)</text>
<polyline fill="none" stroke="#e6550d" stroke-width="3" points="60.0,470.0 78.2,470.0 96.4,428.2 114.6,439.1 132.8,458.9 151.0,466.2 169.2,447.4 187.4,370.7 205.6,430.8"/>
<circle cx="60.0" cy="470.0" r="4" fill="white" stroke="#e6550d" stroke-width="2"/>
<circle cx="78.2" cy="470.0" r="4" fill="white" stroke="#e6550d" stroke-width="2"/>
<circle cx="96.4" cy="428.2" r="4" fill="white" stroke="#e6550d" stroke-width="2"/>
<circle cx="114.6" cy="439.1" r="4" fill="white" stroke="#e6550d" stroke-width="2"/>
<circle cx="132.8" cy="458.9" r="4" fill="white" stroke="#e6550d" stroke-width="2"/>
<circle cx="151.0" cy="466.2" r="4" fill="#e6550d" stroke="#e6550d" stroke-width="2"/>
<circle cx="169.2" cy="447.4" r="4" fill="white" stroke="#e6550d" stroke-width="2"/>
<circle cx="187.4" cy="370.7" r="4" fill="white" stroke="#e6550d" stroke-width="2"/>
<circle cx="205.6" cy="430.8" r="4" fill="white" stroke="#e6550d" stroke-width="2"/>
<line x1="785" y1="140" x2="815" y2="140" stroke="#e6550d" stroke-width="3"/><text x="822" y="144">V-HSG3-noprefix (seed 4321)</text>
<polyline fill="none" stroke="#31a354" stroke-width="3" points="60.0,470.0 78.2,470.0"/>
<circle cx="60.0" cy="470.0" r="4" fill="white" stroke="#31a354" stroke-width="2"/>
<circle cx="78.2" cy="470.0" r="4" fill="white" stroke="#31a354" stroke-width="2"/>
<line x1="785" y1="158" x2="815" y2="158" stroke="#31a354" stroke-width="3"/><text x="822" y="162">V-HSG-noprefix-0930 (relaunch, seed 42)</text>
<polyline fill="none" stroke="#756bb1" stroke-width="3" points="60.0,470.0 78.2,470.0"/>
<circle cx="60.0" cy="470.0" r="4" fill="white" stroke="#756bb1" stroke-width="2"/>
<circle cx="78.2" cy="470.0" r="4" fill="white" stroke="#756bb1" stroke-width="2"/>
<line x1="785" y1="176" x2="815" y2="176" stroke="#756bb1" stroke-width="3"/><text x="822" y="180">V-HSG2-noprefix-0930 (seed 1234)</text>
<line x1="785" y1="194" x2="815" y2="194" stroke="#636363" stroke-width="3"/><text x="822" y="198">V-HSG3-noprefix-0930 (seed 4321)</text>
<polyline fill="none" stroke="#006d2c" stroke-width="3" points="60.0,455.9 78.2,455.9 96.4,446.3 114.6,442.2 132.8,460.0 151.0,468.6 169.2,430.0 187.4,354.6 205.6,438.4 223.8,460.9 242.1,430.7 260.3,422.0 278.5,454.8 296.7,442.0 314.9,434.6 333.1,438.1 351.3,442.4 369.5,470.0 387.7,421.1 405.9,453.8 424.1,470.0 442.3,456.3 460.5,454.9 478.7,458.3 496.9,445.9 515.1,470.0"/>
<circle cx="60.0" cy="455.9" r="4" fill="#006d2c" stroke="#006d2c" stroke-width="2"/>
<circle cx="78.2" cy="455.9" r="4" fill="#006d2c" stroke="#006d2c" stroke-width="2"/>
<circle cx="96.4" cy="446.3" r="4" fill="#006d2c" stroke="#006d2c" stroke-width="2"/>
<circle cx="114.6" cy="442.2" r="4" fill="#006d2c" stroke="#006d2c" stroke-width="2"/>
<circle cx="132.8" cy="460.0" r="4" fill="#006d2c" stroke="#006d2c" stroke-width="2"/>
<circle cx="151.0" cy="468.6" r="4" fill="#006d2c" stroke="#006d2c" stroke-width="2"/>
<circle cx="169.2" cy="430.0" r="4" fill="#006d2c" stroke="#006d2c" stroke-width="2"/>
<circle cx="187.4" cy="354.6" r="4" fill="#006d2c" stroke="#006d2c" stroke-width="2"/>
<circle cx="205.6" cy="438.4" r="4" fill="#006d2c" stroke="#006d2c" stroke-width="2"/>
<circle cx="223.8" cy="460.9" r="4" fill="#006d2c" stroke="#006d2c" stroke-width="2"/>
<circle cx="242.1" cy="430.7" r="4" fill="#006d2c" stroke="#006d2c" stroke-width="2"/>
<circle cx="260.3" cy="422.0" r="4" fill="#006d2c" stroke="#006d2c" stroke-width="2"/>
<circle cx="278.5" cy="454.8" r="4" fill="#006d2c" stroke="#006d2c" stroke-width="2"/>
<circle cx="296.7" cy="442.0" r="4" fill="#006d2c" stroke="#006d2c" stroke-width="2"/>
<circle cx="314.9" cy="434.6" r="4" fill="#006d2c" stroke="#006d2c" stroke-width="2"/>
<circle cx="333.1" cy="438.1" r="4" fill="#006d2c" stroke="#006d2c" stroke-width="2"/>
<circle cx="351.3" cy="442.4" r="4" fill="#006d2c" stroke="#006d2c" stroke-width="2"/>
<circle cx="369.5" cy="470.0" r="4" fill="#006d2c" stroke="#006d2c" stroke-width="2"/>
<circle cx="387.7" cy="421.1" r="4" fill="#006d2c" stroke="#006d2c" stroke-width="2"/>
<circle cx="405.9" cy="453.8" r="4" fill="#006d2c" stroke="#006d2c" stroke-width="2"/>
<circle cx="424.1" cy="470.0" r="4" fill="#006d2c" stroke="#006d2c" stroke-width="2"/>
<circle cx="442.3" cy="456.3" r="4" fill="#006d2c" stroke="#006d2c" stroke-width="2"/>
<circle cx="460.5" cy="454.9" r="4" fill="#006d2c" stroke="#006d2c" stroke-width="2"/>
<circle cx="478.7" cy="458.3" r="4" fill="#006d2c" stroke="#006d2c" stroke-width="2"/>
<circle cx="496.9" cy="445.9" r="4" fill="#006d2c" stroke="#006d2c" stroke-width="2"/>
<circle cx="515.1" cy="470.0" r="4" fill="#006d2c" stroke="#006d2c" stroke-width="2"/>
<line x1="785" y1="212" x2="815" y2="212" stroke="#006d2c" stroke-width="3"/><text x="822" y="216">V-HSG-noprefix-r2 (round 2, seed 42)</text>
<polyline fill="none" stroke="#54278f" stroke-width="3" points="60.0,463.3 78.2,443.4 96.4,458.8 114.6,439.9 132.8,468.4 151.0,468.8 169.2,435.7 187.4,336.2 205.6,445.4 223.8,442.3 242.1,442.2 260.3,460.1 278.5,410.4 296.7,448.5 314.9,409.3 333.1,406.8 351.3,438.2 369.5,461.5 387.7,317.4 405.9,431.5 424.1,442.9 442.3,311.7 460.5,430.1 478.7,454.3 496.9,387.1 515.1,421.3 533.3,413.9 551.5,456.1 569.7,406.0 587.9,407.0 606.2,426.0 624.4,442.8"/>
<circle cx="60.0" cy="463.3" r="4" fill="#54278f" stroke="#54278f" stroke-width="2"/>
<circle cx="78.2" cy="443.4" r="4" fill="#54278f" stroke="#54278f" stroke-width="2"/>
<circle cx="96.4" cy="458.8" r="4" fill="#54278f" stroke="#54278f" stroke-width="2"/>
<circle cx="114.6" cy="439.9" r="4" fill="#54278f" stroke="#54278f" stroke-width="2"/>
<circle cx="132.8" cy="468.4" r="4" fill="#54278f" stroke="#54278f" stroke-width="2"/>
<circle cx="151.0" cy="468.8" r="4" fill="#54278f" stroke="#54278f" stroke-width="2"/>
<circle cx="169.2" cy="435.7" r="4" fill="#54278f" stroke="#54278f" stroke-width="2"/>
<circle cx="187.4" cy="336.2" r="4" fill="#54278f" stroke="#54278f" stroke-width="2"/>
<circle cx="205.6" cy="445.4" r="4" fill="#54278f" stroke="#54278f" stroke-width="2"/>
<circle cx="223.8" cy="442.3" r="4" fill="#54278f" stroke="#54278f" stroke-width="2"/>
<circle cx="242.1" cy="442.2" r="4" fill="#54278f" stroke="#54278f" stroke-width="2"/>
<circle cx="260.3" cy="460.1" r="4" fill="#54278f" stroke="#54278f" stroke-width="2"/>
<circle cx="278.5" cy="410.4" r="4" fill="#54278f" stroke="#54278f" stroke-width="2"/>
<circle cx="296.7" cy="448.5" r="4" fill="#54278f" stroke="#54278f" stroke-width="2"/>
<circle cx="314.9" cy="409.3" r="4" fill="#54278f" stroke="#54278f" stroke-width="2"/>
<circle cx="333.1" cy="406.8" r="4" fill="#54278f" stroke="#54278f" stroke-width="2"/>
<circle cx="351.3" cy="438.2" r="4" fill="#54278f" stroke="#54278f" stroke-width="2"/>
<circle cx="369.5" cy="461.5" r="4" fill="#54278f" stroke="#54278f" stroke-width="2"/>
<circle cx="387.7" cy="317.4" r="4" fill="#54278f" stroke="#54278f" stroke-width="2"/>
<circle cx="405.9" cy="431.5" r="4" fill="#54278f" stroke="#54278f" stroke-width="2"/>
<circle cx="424.1" cy="442.9" r="4" fill="#54278f" stroke="#54278f" stroke-width="2"/>
<circle cx="442.3" cy="311.7" r="4" fill="#54278f" stroke="#54278f" stroke-width="2"/>
<circle cx="460.5" cy="430.1" r="4" fill="#54278f" stroke="#54278f" stroke-width="2"/>
<circle cx="478.7" cy="454.3" r="4" fill="#54278f" stroke="#54278f" stroke-width="2"/>
<circle cx="496.9" cy="387.1" r="4" fill="#54278f" stroke="#54278f" stroke-width="2"/>
<circle cx="515.1" cy="421.3" r="4" fill="#54278f" stroke="#54278f" stroke-width="2"/>
<circle cx="533.3" cy="413.9" r="4" fill="#54278f" stroke="#54278f" stroke-width="2"/>
<circle cx="551.5" cy="456.1" r="4" fill="#54278f" stroke="#54278f" stroke-width="2"/>
<circle cx="569.7" cy="406.0" r="4" fill="#54278f" stroke="#54278f" stroke-width="2"/>
<circle cx="587.9" cy="407.0" r="4" fill="#54278f" stroke="#54278f" stroke-width="2"/>
<circle cx="606.2" cy="426.0" r="4" fill="#54278f" stroke="#54278f" stroke-width="2"/>
<circle cx="624.4" cy="442.8" r="4" fill="#54278f" stroke="#54278f" stroke-width="2"/>
<line x1="785" y1="230" x2="815" y2="230" stroke="#54278f" stroke-width="3"/><text x="822" y="234">V-HSG2-noprefix-r2 (seed 1234)</text>
<polyline fill="none" stroke="#a63603" stroke-width="3" points="60.0,430.3 78.2,443.7 96.4,439.4 114.6,456.2 132.8,460.7 151.0,457.0 169.2,401.3 187.4,327.2 205.6,470.0 223.8,442.5 242.1,450.2 260.3,465.6 278.5,450.9 296.7,430.5 314.9,448.6 333.1,443.7 351.3,419.7 369.5,460.0 387.7,402.2 405.9,456.7 424.1,446.1 442.3,379.7 460.5,445.6 478.7,451.4 496.9,417.1 515.1,426.0"/>
<circle cx="60.0" cy="430.3" r="4" fill="#a63603" stroke="#a63603" stroke-width="2"/>
<circle cx="78.2" cy="443.7" r="4" fill="#a63603" stroke="#a63603" stroke-width="2"/>
<circle cx="96.4" cy="439.4" r="4" fill="#a63603" stroke="#a63603" stroke-width="2"/>
<circle cx="114.6" cy="456.2" r="4" fill="#a63603" stroke="#a63603" stroke-width="2"/>
<circle cx="132.8" cy="460.7" r="4" fill="#a63603" stroke="#a63603" stroke-width="2"/>
<circle cx="151.0" cy="457.0" r="4" fill="#a63603" stroke="#a63603" stroke-width="2"/>
<circle cx="169.2" cy="401.3" r="4" fill="#a63603" stroke="#a63603" stroke-width="2"/>
<circle cx="187.4" cy="327.2" r="4" fill="#a63603" stroke="#a63603" stroke-width="2"/>
<circle cx="205.6" cy="470.0" r="4" fill="#a63603" stroke="#a63603" stroke-width="2"/>
<circle cx="223.8" cy="442.5" r="4" fill="#a63603" stroke="#a63603" stroke-width="2"/>
<circle cx="242.1" cy="450.2" r="4" fill="#a63603" stroke="#a63603" stroke-width="2"/>
<circle cx="260.3" cy="465.6" r="4" fill="#a63603" stroke="#a63603" stroke-width="2"/>
<circle cx="278.5" cy="450.9" r="4" fill="#a63603" stroke="#a63603" stroke-width="2"/>
<circle cx="296.7" cy="430.5" r="4" fill="#a63603" stroke="#a63603" stroke-width="2"/>
<circle cx="314.9" cy="448.6" r="4" fill="#a63603" stroke="#a63603" stroke-width="2"/>
<circle cx="333.1" cy="443.7" r="4" fill="#a63603" stroke="#a63603" stroke-width="2"/>
<circle cx="351.3" cy="419.7" r="4" fill="#a63603" stroke="#a63603" stroke-width="2"/>
<circle cx="369.5" cy="460.0" r="4" fill="#a63603" stroke="#a63603" stroke-width="2"/>
<circle cx="387.7" cy="402.2" r="4" fill="#a63603" stroke="#a63603" stroke-width="2"/>
<circle cx="405.9" cy="456.7" r="4" fill="#a63603" stroke="#a63603" stroke-width="2"/>
<circle cx="424.1" cy="446.1" r="4" fill="#a63603" stroke="#a63603" stroke-width="2"/>
<circle cx="442.3" cy="379.7" r="4" fill="#a63603" stroke="#a63603" stroke-width="2"/>
<circle cx="460.5" cy="445.6" r="4" fill="#a63603" stroke="#a63603" stroke-width="2"/>
<circle cx="478.7" cy="451.4" r="4" fill="#a63603" stroke="#a63603" stroke-width="2"/>
<circle cx="496.9" cy="417.1" r="4" fill="#a63603" stroke="#a63603" stroke-width="2"/>
<circle cx="515.1" cy="426.0" r="4" fill="#a63603" stroke="#a63603" stroke-width="2"/>
<line x1="785" y1="248" x2="815" y2="248" stroke="#a63603" stroke-width="3"/><text x="822" y="252">V-HSG3-noprefix-r2 (seed 4321)</text>
<polyline fill="none" stroke="#e377c2" stroke-width="1.5" points="60.0,436.6 78.2,468.4 96.4,425.0 114.6,440.1 132.8,447.1 151.0,436.6 169.2,396.4 187.4,366.2 205.6,457.5 223.8,458.3 242.1,436.9 260.3,451.8 278.5,457.1 296.7,437.0 314.9,444.5 333.1,438.4 351.3,439.6 369.5,470.0 387.7,371.2 405.9,464.0 424.1,459.1 442.3,429.9 460.5,470.0 478.7,464.2 496.9,465.5 515.1,470.0 533.3,470.0 551.5,470.0 569.7,458.5 587.9,438.0 606.2,458.7 624.4,466.8 642.6,470.0 660.8,463.5 679.0,470.0"/>
<line x1="785" y1="266" x2="815" y2="266" stroke="#e377c2" stroke-width="1.5"/><text x="822" y="270">chain V (CMH, vLLM-parity MINF)</text>
<polyline fill="none" stroke="#8c564b" stroke-width="1.5" points="60.0,453.9 78.2,442.5 96.4,448.5 114.6,413.0 132.8,456.6 151.0,426.8 169.2,419.1 187.4,334.3 205.6,449.2 223.8,463.0 242.1,456.4 260.3,453.8 278.5,470.0 296.7,445.4 314.9,456.3 333.1,470.0 351.3,470.0 369.5,470.0 387.7,454.6 405.9,470.0 424.1,470.0 442.3,470.0 460.5,470.0 478.7,462.1 496.9,470.0 515.1,470.0 533.3,470.0 551.5,470.0 569.7,470.0 587.9,470.0 606.2,469.6 624.4,470.0 642.6,470.0 660.8,470.0 679.0,470.0 697.2,470.0 715.4,465.6 733.6,470.0 751.8,469.6 770.0,469.8"/>
<line x1="785" y1="284" x2="815" y2="284" stroke="#8c564b" stroke-width="1.5"/><text x="822" y="288">chain P'''' (CMH MINF keep-prefix)</text>
<polyline fill="none" stroke="#2ca02c" stroke-width="1.5" points="60.0,443.8 78.2,442.6 96.4,413.1 114.6,421.4 132.8,470.0 151.0,460.0 169.2,422.5 187.4,313.5 205.6,426.0 223.8,465.7 242.1,396.3 260.3,469.2 278.5,452.7 296.7,420.9 314.9,443.2 333.1,436.5 351.3,433.1 369.5,447.7 387.7,339.1 405.9,441.4 424.1,463.2 442.3,429.1 460.5,463.5 478.7,467.5 496.9,469.3 515.1,462.0 533.3,451.6 551.5,470.0 569.7,470.0 587.9,443.8 606.2,467.5 624.4,427.9 642.6,470.0 660.8,470.0 679.0,466.3 697.2,470.0 715.4,468.8 733.6,464.9 751.8,470.0 770.0,470.0"/>
<line x1="785" y1="302" x2="815" y2="302" stroke="#2ca02c" stroke-width="1.5"/><text x="822" y="306">chain J (CMH MINF clean)</text>
<polyline fill="none" stroke="#000000" stroke-width="1.5" points="60.0,461.6 78.2,470.0 96.4,442.5 114.6,453.2 132.8,450.6 151.0,464.7 169.2,373.6 187.4,338.1 205.6,446.7 223.8,452.7 242.1,449.4 260.3,429.2 278.5,441.3 296.7,433.0 314.9,361.4 333.1,335.8 351.3,399.2 369.5,426.4 387.7,329.9 405.9,400.6 424.1,385.7 442.3,354.8 460.5,400.8 478.7,331.9 496.9,322.7 515.1,350.0 533.3,262.7 551.5,335.3 569.7,291.0 587.9,170.6 606.2,269.0 624.4,335.5 642.6,254.4 660.8,282.0 679.0,68.0 697.2,102.7"/>
<line x1="785" y1="320" x2="815" y2="320" stroke="#000000" stroke-width="1.5"/><text x="822" y="324">chain G (CMH MINF poisoned)</text>
<polyline fill="none" stroke="#1f77b4" stroke-width="1.5" points="60.0,420.3 78.2,434.6 96.4,470.0 114.6,460.2 132.8,458.0 151.0,470.0 169.2,431.0 187.4,362.3 205.6,470.0 223.8,444.1 242.1,417.1 260.3,453.2 278.5,453.7 296.7,455.6 314.9,435.0 333.1,447.9 351.3,456.2 369.5,459.8 387.7,414.1 405.9,470.0 424.1,470.0 442.3,470.0 460.5,469.6 478.7,470.0 496.9,455.8 515.1,470.0 533.3,468.4 551.5,468.6 569.7,468.6 587.9,462.7 606.2,462.0 624.4,461.7 642.6,470.0 660.8,466.3 679.0,468.3 697.2,454.7 715.4,460.4 733.6,468.2 751.8,464.9 770.0,426.0"/>
<line x1="785" y1="338" x2="815" y2="338" stroke="#1f77b4" stroke-width="1.5"/><text x="822" y="342">run A (CMH vLLM)</text>
<polyline fill="none" stroke="#17becf" stroke-width="1.5" points="60.0,400.7 78.2,470.0 96.4,420.9 114.6,424.8 132.8,457.3 151.0,463.8 169.2,359.4 187.4,331.5 205.6,424.3 223.8,443.5 242.1,408.5 260.3,433.7 278.5,430.1 296.7,358.2 314.9,420.6 333.1,437.1 351.3,411.3 369.5,461.8 387.7,389.1 405.9,450.1 424.1,458.9 442.3,439.6 460.5,470.0 478.7,466.1 496.9,459.8 515.1,453.0 533.3,464.8 551.5,470.0 569.7,470.0 587.9,470.0 606.2,467.3 624.4,468.8 642.6,470.0 660.8,470.0 679.0,470.0 697.2,470.0 715.4,469.8 733.6,470.0 751.8,470.0 770.0,470.0"/>
<line x1="785" y1="356" x2="815" y2="356" stroke="#17becf" stroke-width="1.5"/><text x="822" y="360">chain Q'''' (CMH vLLM no prefix)</text>
<text x="785" y="384" fill="#444">open circle = step with &gt;50 harness-failed rows (reward forced 0)</text>
</svg>